<svg width="600" height="160" viewBox="0 0 600 160" fill="none" xmlns="http://www.w3.org/2000/svg" role="img" aria-label="Myggestop logo">
  <defs>
    <linearGradient id="blue" x1="0" y1="0" x2="1" y2="1">
      <stop offset="0" stop-color="#3aa9f0"/><stop offset="1" stop-color="#0f5fa6"/>
    </linearGradient>
    <linearGradient id="green" x1="0" y1="0" x2="1" y2="1">
      <stop offset="0" stop-color="#7ed957"/><stop offset="1" stop-color="#3f9c12"/>
    </linearGradient>
    <linearGradient id="wave" x1="0" y1="0" x2="1" y2="0">
      <stop offset="0" stop-color="#1b8de0"/><stop offset="1" stop-color="#5cc524"/>
    </linearGradient>
  </defs>
  <g transform="translate(8,6)">
    <path d="M22 86 A66 66 0 0 1 154 86" fill="none" stroke="url(#blue)" stroke-width="3" opacity="0.9"/>
    <g stroke="url(#blue)" stroke-width="1.4" opacity="0.5">
      <line x1="44" y1="46" x2="44" y2="86"/><line x1="64" y1="34" x2="64" y2="86"/>
      <line x1="88" y1="28" x2="88" y2="86"/><line x1="112" y1="34" x2="112" y2="86"/>
      <line x1="132" y1="46" x2="132" y2="86"/>
      <path d="M30 62 H146"/><path d="M26 74 H150"/><path d="M40 50 H136"/>
    </g>
    <path d="M58 94 L92 64 L126 94 Z" fill="url(#blue)"/>
    <rect x="66" y="92" width="52" height="30" fill="url(#blue)"/>
    <rect x="80" y="100" width="16" height="16" fill="#ffffff" opacity="0.92"/>
    <line x1="88" y1="100" x2="88" y2="116" stroke="#0f5fa6" stroke-width="1.4"/>
    <line x1="80" y1="108" x2="96" y2="108" stroke="#0f5fa6" stroke-width="1.4"/>
    <path d="M128 122 L150 66 L160 84 L138 122 Z" fill="url(#green)"/>
    <circle cx="172" cy="50" r="13" fill="url(#green)"/>
    <circle cx="178" cy="80" r="10" fill="url(#green)"/>
    <g fill="#7ed957"><circle cx="196" cy="46" r="3.2"/><circle cx="200" cy="62" r="2.6"/><circle cx="190" cy="70" r="2.2"/><circle cx="188" cy="34" r="2.4"/></g>
    <path d="M20 128 C60 116 100 140 140 128 C170 119 195 132 205 128" fill="none" stroke="url(#wave)" stroke-width="6" stroke-linecap="round"/>
    <path d="M24 140 C64 130 104 150 144 140 C172 132 196 142 206 139" fill="none" stroke="url(#green)" stroke-width="5" stroke-linecap="round" opacity="0.85"/>
  </g>
  <text x="232" y="104" font-family="Arial, Helvetica, sans-serif" font-size="58" font-weight="800" letter-spacing="-1.5">
    <tspan fill="url(#blue)">MYGGE</tspan><tspan fill="url(#green)">STOP</tspan>
  </text>
</svg>
